<svg width="48" height="48" viewBox="0 0 48 48" fill="none" xmlns="http://www.w3.org/2000/svg">
<path fill-rule="evenodd" clip-rule="evenodd" d="M0 24C0 37.2548 10.7452 48 24 48C37.2548 48 48 37.2548 48 24C48 10.7452 37.2548 0 24 0C10.7452 0 0 10.7452 0 24ZM39.0621 23.0815C39.059 30.9483 32.6595 37.3493 24.7911 37.3525H24.7852C22.3967 37.3517 20.0498 36.7524 17.9653 35.6155L10.4 37.6L12.4246 30.2048C11.1757 28.0405 10.5186 25.5855 10.5196 23.0702C10.5228 15.2017 16.9248 8.8 24.7909 8.8C28.6086 8.80165 32.1918 10.2879 34.8862 12.9854C37.5806 15.6828 39.0637 19.2683 39.0621 23.0815Z" fill="#111010"/>
</svg>
