<svg width="160" height="175" viewBox="0 0 160 175" fill="none" xmlns="http://www.w3.org/2000/svg">
<g clip-path="url(#clip0_269_166)">
<path d="M159.262 164.716C156.024 156.859 152.795 148.997 149.57 141.132C145.916 132.224 142.275 123.312 138.62 114.405C135.025 105.636 131.42 96.8675 127.82 88.1032C127.39 87.0574 126.947 86.0161 126.522 84.9658C126.033 83.7501 126.422 82.5166 127.915 82.2842C128.286 82.2261 128.652 82.2038 129.018 82.2038C134.753 82.2038 140.488 82.1948 146.223 82.2082C146.816 82.2082 147.395 82.1412 147.964 81.9982C150.936 81.2384 153.161 78.3468 152.596 75.0171C151.999 71.473 149.145 69.6808 146.151 69.6897C140.352 69.7031 134.559 69.6942 128.76 69.6942C126.96 69.6942 125.165 69.6942 123.365 69.6942C121.311 69.6897 119.932 68.7735 119.145 66.9143C118.955 66.4629 118.765 66.0115 118.579 65.5601C116.178 59.7098 113.772 53.855 111.37 48.0047C109.294 42.9409 107.214 37.8817 105.151 32.8135C104.776 31.8884 104.265 31.0437 103.55 30.3688C99.9725 27.0034 94.3506 28.0045 92.1118 32.1699C91.2299 33.8146 90.3751 35.4727 89.5383 37.1398C86.698 42.8069 83.8803 48.4784 81.0444 54.1455C78.575 59.0751 76.0829 63.9914 73.6315 68.9299C73.3466 69.502 73.0435 69.7165 72.3877 69.7121C67.1503 69.6808 61.9083 69.6942 56.6709 69.6942C56.4854 69.6942 56.3 69.7076 56.1146 69.6942C54.9431 69.5959 53.9391 69.2651 53.5818 67.978C53.4777 67.6115 53.5049 67.2495 53.5049 66.8875C53.5049 49.5466 53.5049 32.2101 53.5049 14.8693C53.5049 14.1989 53.4823 13.5329 53.3828 12.8625C52.8084 8.97424 51.0083 5.78763 47.9146 3.31164C45.0834 1.04123 41.8495 -0.0358698 38.2177 -0.000115343C34.3009 0.0356391 30.9042 1.39431 28.0503 4.00885C24.9205 6.87367 23.4461 10.5117 23.2561 14.6815C23.1928 16.1072 23.2199 17.5419 23.2561 18.9721C23.2968 20.733 23.3104 22.4984 23.2878 24.2548C23.2516 26.8559 23.2697 29.4571 23.2652 32.0582C23.2561 36.0493 23.2606 40.0404 23.2878 44.0359C23.3059 46.4583 23.2697 48.8896 23.2652 51.3164C23.2652 53.2516 23.2833 55.1868 23.3059 57.122C23.324 58.8427 23.2878 60.5723 23.2878 62.2975C23.2878 63.7232 23.2968 65.1534 23.238 66.5791C23.1702 68.2059 22.6501 68.9746 21.2435 69.4171C20.6374 69.6093 19.9861 69.7031 19.3303 69.6987C14.9884 69.6852 10.651 69.6718 6.30904 69.6987C2.99832 69.7165 0.230346 72.121 0.0177722 75.5713C-0.221938 79.473 2.98476 82.2663 6.37689 82.2082C7.92822 82.1814 9.47503 82.2038 11.0264 82.2038C13.8803 82.2038 16.7297 82.2038 19.5836 82.2038C21.1756 82.2038 22.1887 82.9278 22.7405 84.3893C23.1476 85.4664 23.229 86.5882 23.2426 87.7189C23.2652 89.5692 23.2109 91.4195 23.2606 93.2698C23.3104 95.1469 23.3059 97.0284 23.2833 98.9011C23.2471 102.159 23.3014 105.417 23.2787 108.675C23.2652 110.883 23.3104 113.096 23.2787 115.303C23.2516 117.301 23.3149 119.303 23.2606 121.301C23.2064 123.25 23.2199 125.198 23.2606 127.147C23.2923 128.64 23.1385 130.133 23.3737 131.625C23.4823 132.314 23.5184 133.038 23.4416 133.726C23.3601 134.468 23.4009 135.205 23.5004 135.916C24.0205 139.777 25.6668 143.071 28.7107 145.623C31.4515 147.925 34.622 149.163 38.2041 149.172C48.9006 149.208 59.5926 149.185 70.2891 149.185C80.9856 149.185 91.4922 149.185 102.094 149.185C102.65 149.185 103.202 149.158 103.758 149.1C107.698 148.689 110.977 146.973 113.546 144.045C117.621 139.397 118.371 132.868 115.572 127.612C112.75 122.311 108.222 119.513 102.175 119.469C90.6736 119.379 79.172 119.442 67.6704 119.442C67.3312 119.442 66.992 119.469 66.6528 119.388C65.0291 119.004 64.7803 118.249 65.4361 116.957C66.6618 114.557 67.8332 112.135 69.0408 109.726C71.248 105.319 73.4732 100.921 75.6758 96.51C77.7563 92.3491 79.8323 88.1837 81.8857 84.0094C82.4872 82.7892 83.342 82.1412 84.7894 82.1859C87.0824 82.2574 89.3755 82.2038 91.6731 82.2038C97.191 82.2038 102.709 82.2216 108.227 82.1903C109.52 82.1859 110.343 82.6954 110.823 83.9334C111.759 86.3557 112.79 88.7423 113.776 91.1468C116.454 97.6765 119.127 104.211 121.804 110.74C124.599 117.551 127.399 124.363 130.194 131.174C133.025 138.075 135.861 144.971 138.688 151.871C141.216 158.039 143.776 164.189 146.241 170.379C147.499 173.529 150.909 175.581 154.432 174.839C157.535 174.186 160.058 171.304 160 168.26C159.977 167.009 159.733 165.851 159.262 164.707V164.716ZM66.0377 84.0809C65.504 85.2474 64.8934 86.3781 64.3235 87.5267C61.3384 93.52 58.3534 99.5178 55.3683 105.511C55.1648 105.918 54.9703 106.338 54.6944 106.7C54.3914 107.102 53.9707 107.04 53.7401 106.593C53.5999 106.32 53.5772 106.016 53.5637 105.708C53.4144 102.347 53.532 98.9815 53.4958 95.6206C53.4958 95.2854 53.4958 94.9457 53.4958 94.6105C53.4958 91.3658 53.4958 88.1256 53.4958 84.8809C53.4958 84.6351 53.4823 84.3893 53.5049 84.1479C53.5908 83.1513 54.0838 82.1859 55.6985 82.1948C58.7333 82.2082 61.7681 82.1948 64.7984 82.1993C66.0241 82.1993 66.5442 82.9635 66.0331 84.0764L66.0377 84.0809ZM103.365 69.5646C103.03 69.6674 102.704 69.6897 102.361 69.6897C100.565 69.6897 98.7649 69.6897 96.9694 69.6897C95.1738 69.6897 93.5004 69.6897 91.7636 69.6897C91.5148 69.6897 91.2661 69.7076 91.0218 69.6674C90.0178 69.5065 89.6559 68.9344 89.9816 67.969C90.1489 67.4774 90.3886 67.0126 90.6238 66.5478C92.2656 63.2629 93.9119 59.9824 95.5537 56.6975C95.7301 56.3399 95.9427 56.0047 96.1553 55.6695C96.5533 55.0393 97.2046 54.9812 97.8378 54.874C98.0956 54.8338 98.3126 54.9812 98.5026 55.1466C98.973 55.5578 99.3574 56.0315 99.5971 56.6081C101.094 60.2506 102.587 63.893 104.084 67.54C104.152 67.7098 104.242 67.8752 104.287 68.0495C104.464 68.7333 104.061 69.35 103.365 69.5601V69.5646Z" fill="#111010"/>
</g>
<defs>
<clipPath id="clip0_269_166">
<rect width="160" height="175" fill="white"/>
</clipPath>
</defs>
</svg>
